<?xml version="1.0" encoding="UTF-8" standalone="no"?>
<svg width="380px" height="665px" viewBox="0 0 380 665" version="1.1" xmlns="http://www.w3.org/2000/svg" xmlns:xlink="http://www.w3.org/1999/xlink" xmlns:sketch="http://www.bohemiancoding.com/sketch/ns">
    <!-- Generator: Sketch 3.3.3 (12081) - http://www.bohemiancoding.com/sketch -->
    <title>jekyll</title>
    <desc>Created with Sketch.</desc>
    <defs>
        <linearGradient x1="72.4932038%" y1="53.2259508%" x2="-6.18666504%" y2="37.9665517%" id="linearGradient-1">
            <stop stop-color="#F9F9F9" offset="0%"></stop>
            <stop stop-color="#ECECEC" offset="19.2980708%"></stop>
            <stop stop-color="#AAACAC" offset="87.3264603%"></stop>
            <stop stop-color="#8F9191" offset="100%"></stop>
        </linearGradient>
        <filter x="-50%" y="-50%" width="200%" height="200%" filterUnits="objectBoundingBox" id="filter-2">
            <feOffset dx="-5" dy="-5" in="SourceAlpha" result="shadowOffsetInner1"></feOffset>
            <feGaussianBlur stdDeviation="0" in="shadowOffsetInner1" result="shadowBlurInner1"></feGaussianBlur>
            <feComposite in="shadowBlurInner1" in2="SourceAlpha" operator="arithmetic" k2="-1" k3="1" result="shadowInnerInner1"></feComposite>
            <feColorMatrix values="0 0 0 0 0.898039216   0 0 0 0 0.898039216   0 0 0 0 0.898039216  0 0 0 0.7 0" in="shadowInnerInner1" type="matrix" result="shadowMatrixInner1"></feColorMatrix>
            <feMerge>
                <feMergeNode in="SourceGraphic"></feMergeNode>
                <feMergeNode in="shadowMatrixInner1"></feMergeNode>
            </feMerge>
        </filter>
        <filter x="-50%" y="-50%" width="200%" height="200%" filterUnits="objectBoundingBox" id="filter-3">
            <feOffset dx="-3" dy="0" in="SourceAlpha" result="shadowOffsetInner1"></feOffset>
            <feGaussianBlur stdDeviation="2" in="shadowOffsetInner1" result="shadowBlurInner1"></feGaussianBlur>
            <feComposite in="shadowBlurInner1" in2="SourceAlpha" operator="arithmetic" k2="-1" k3="1" result="shadowInnerInner1"></feComposite>
            <feColorMatrix values="0 0 0 0 0   0 0 0 0 0   0 0 0 0 0  0 0 0 0.042 0" in="shadowInnerInner1" type="matrix" result="shadowMatrixInner1"></feColorMatrix>
            <feMerge>
                <feMergeNode in="SourceGraphic"></feMergeNode>
                <feMergeNode in="shadowMatrixInner1"></feMergeNode>
            </feMerge>
        </filter>
        <linearGradient x1="100%" y1="51.3320029%" x2="-41.4133943%" y2="50%" id="linearGradient-4">
            <stop stop-color="#E90388" offset="0%"></stop>
            <stop stop-color="#A10961" offset="38.5364588%"></stop>
            <stop stop-color="#861657" offset="70.7170759%"></stop>
            <stop stop-color="#3E102B" offset="100%"></stop>
        </linearGradient>
    </defs>
    <g id="Page-1" stroke="none" stroke-width="1" fill="none" fill-rule="evenodd" sketch:type="MSPage">
        <g id="Jekyll" sketch:type="MSArtboardGroup">
            <g id="jekyll" sketch:type="MSLayerGroup" transform="translate(-131.000000, -260.000000)">
                <rect id="bg" fill="#FCFCFC" sketch:type="MSShapeGroup" x="0" y="0" width="640" height="1136"></rect>
                <path d="M144.34107,813.750857 C129.252335,853.058356 148.873225,897.150496 188.184856,912.240817 C227.487846,927.327821 271.581026,907.693295 286.669786,868.385732 C286.669786,868.385732 467.999988,391 473.642698,379.97922 C487.999988,372 496.999988,368.000001 499.999988,361.000001 C508.482458,340.005151 480.227731,309.033079 426.460433,287.309681 C372.693135,265.586282 324.912136,261.606406 323.000004,287.30968 C321.53519,306.999999 329.000004,311 332.393021,325.316389 C334.033462,327.450974 144.34107,813.750857 144.34107,813.750857 Z" id="base" fill="url(#linearGradient-1)" filter="url(#filter-2)" sketch:type="MSShapeGroup"></path>
                <path d="M407.068068,334.09301 C438.156862,346.653698 466.065301,350.13858 469.403312,341.876713 C472.741324,333.614845 450.24487,316.734828 419.156076,304.17414 C388.067283,291.613452 360.158844,288.12857 356.820832,296.390438 C353.482821,304.652306 375.979275,321.532323 407.068068,334.09301 Z" id="black-circle" fill-opacity="0.200000003" fill="#333333" filter="url(#filter-3)" sketch:type="MSShapeGroup"></path>
                <path d="M275.600949,520.623208 C236.640917,540.267241 225.252841,568.331723 225.252841,611.050467 C225.252841,625.695578 225.252841,849.171568 225.252841,849.171568 C225.252841,878.705937 249.187973,902.648274 278.727958,902.648274 L278.727958,902.648274 C308.26145,902.648274 332.203076,878.700513 332.203077,849.172655 L332.20308,443.332266 C322.632994,468.645331 314.56098,500.979174 275.600949,520.623208 Z" id="liquid" fill="url(#linearGradient-4)" sketch:type="MSShapeGroup" transform="translate(278.727960, 672.990270) rotate(21.000000) translate(-278.727960, -672.990270) "></path>
                <path d="M221.940124,917.048146 C203.140334,901.265438 187.909363,876.806792 196,848 C207.480897,807.122156 381,358 381,358 C381,358 337,339 324,302 C323.96062,302 323.91555,302.015977 323.864844,302.047764 C325.830168,310.539152 330.067753,315.505227 332.393021,325.316389 C334.033462,327.450974 144.34107,813.750857 144.34107,813.750857 C125,849.000008 148.873225,897.150496 188.184856,912.240817 C199.308291,916.510704 210.815415,917.999433 221.940124,917.048146 Z" id="gloss" fill-opacity="0.400000006" fill="#FFFFFF" sketch:type="MSShapeGroup"></path>
                <g id="bubbles" transform="translate(218.000000, 603.000000)" fill="#FFFFFF" sketch:type="MSShapeGroup" fill-opacity="0.5">
                    <path d="M37,120 C48.045695,120 57,111.045695 57,100 C57,88.954305 48.045695,80 37,80 C25.954305,80 17,88.954305 17,100 C17,111.045695 25.954305,120 37,120 Z" id="Oval-2"></path>
                    <circle id="Oval-2" cx="92.5" cy="51.5" r="10.5"></circle>
                    <circle id="Oval-2" cx="9" cy="130" r="9"></circle>
                    <circle id="Oval-2" cx="55.5" cy="7.5" r="7.5"></circle>
                    <circle id="Oval-2" cx="44.5" cy="192.5" r="7.5"></circle>
                </g>
            </g>
        </g>
    </g>
</svg>