<svg xmlns="http://www.w3.org/2000/svg" width="512" height="512" viewBox="0 0 512 512"><path d="M502 279.8l-222.2 222c-13 13-33.7 13-46.5 0L10 279c-12.7-13-12.7-33.7 0-46.6l153-153 58 58c-6 14.2-3 31.2 8.5 42.8 3.8 3.8 8 6.6 12.8 8.5v140.3c-4.7 2-9 4.8-12.8 8.6-15.3 15.3-15.3 40 0 55.4 15.3 15.3 40 15.3 55.4 0 15.2-15.4 15.2-40 0-55.4-3.2-3-6.8-5.6-10.5-7.4V191l52.8 52.8c-5.8 14.2-3 31 8.6 42.6 15.2 15.3 40 15.3 55.2 0 15.3-15.3 15.3-40 0-55.4-11-11-26.7-14-40.4-9.3L294.2 165c4.7-13.6 1.6-29.4-9.3-40.4-11-11-26.7-14-40.3-9.4L186 56.5 232 10c13-12.7 33.7-12.7 46.6 0l223 223.2c13 13 13 33.7 0 46.6z"/></svg>
