<svg xmlns="http://www.w3.org/2000/svg" width="134.5" height="130.5" viewBox="0 0 134.456 130.491"><g fill="#191717"><path fill-rule="evenodd" clip-rule="evenodd" d="M67 6.2c-33.4 0-60.5 27-60.5 60.4 0 26.7 17.3 49.3 41.3 57.3 3 .5 4-1.4 4-3v-11.2c-16.7 3.6-20.3-7.2-20.3-7.2-2.7-7-6.7-8.8-6.7-8.8-5.5-3.7.4-3.7.4-3.7 6 .6 9.3 6.4 9.3 6.4 5.4 9.2 14 6.5 17.6 5 .6-4 2.2-6.6 4-8-13.5-1.6-27.6-6.8-27.6-30 0-6.5 2.3-12 6.2-16.2-.6-1.5-2.7-7.6.6-16 0 0 5-1.6 16.6 6.3 4.8-1.4 10-2 15-2 5.2 0 10.4.6 15.2 2 11.6-8 16.6-6.2 16.6-6.2 3.3 8.3 1.2 14.4.6 16 4 4.2 6.2 9.6 6.2 16.2 0 23.2-14 28.3-27.5 29.8 2 1.8 4 5.5 4 11V121c0 1.6 1 3.5 4 3 24-8 41.3-30.7 41.3-57.4 0-33.3-27-60.4-60.4-60.4z"/><path d="M29.4 93c0 .2-.6.3-1 0-.5 0-.7-.5-.6-.8 0-.3.6-.4 1-.2.5.2.7.6.6 1zm-.8-.6M31.8 95.7c-.2.2-.8 0-1.2-.3-.4-.4-.5-1-.2-1.3.3 0 1 0 1.3.4.4.4.4 1 0 1.3zm-.5-.7M34.2 99c-.4.4-1 0-1.3-.4-.5-.5-.5-1.2 0-1.4.3-.3.8 0 1.2.5.4.5.4 1.2 0 1.4zm0 0M37.5 102.5c-.4.4-1 .3-1.6-.2-.6-.5-.7-1.2-.4-1.6.3-.3 1-.2 1.5.2.7.4.8 1 .5 1.5zm0 0M42 104.4c-.2.5-.8.7-1.5.5-.7-.3-1.2-.8-1-1.3 0-.5.8-.7 1.5-.5.7.2 1 .8 1 1.2zm0 0M47 104.8c0 .5-.6 1-1.4 1-.7 0-1.3-.5-1.3-1s.6-1 1.3-1c.7 0 1.3.5 1.3 1zm0 0M51.5 104c0 .5-.4 1-1 1-.8.3-1.5 0-1.5-.5s.4-1 1-1c.8-.3 1.4 0 1.5.5zm0 0"/></g></svg>
