<svg xmlns="http://www.w3.org/2000/svg" width="252.5" height="153.2" viewBox="0 0 252.536 153.165"><path d="M67.5 79c0 .4-.5 1.2-1 2.6L65 86.8c-.8 2-1.5 4.4-2.2 7l-2.4 7.8-2.4 8-2 7-1.4 5-.8 2.6c-.2.8-.5 1.8-1 2.8-.5 1-1 2-1.7 3-.6.8-1.3 1.5-2 2-1 .7-1.7 1-2.5 1-1.4 0-2.5-.5-3-1.4-.7-1-1-2.6-1-5v-1.2-1.2c0-.8.4-2.4 1-4.7.6-2.3 1.3-5 2.2-7.7l2.8-9 2.6-8.3c-2.2 2.6-4.7 5.2-7.4 7.7-2.8 2.6-5.5 5-8.4 7-3 2-5.7 3.7-8.6 5s-5.7 2-8.4 2c-3 0-5.7-.7-8-2-2-1.4-4-3.2-5.4-5.4-1.5-2.2-2.5-4.6-3.2-7.4-.7-2.7-1-5.5-1-8.2v-1-1c.2-5 1-10 2-15.4C4 70.6 5.5 65.4 7.4 60.2c2-5.2 4-10.3 6.5-15.3s5.2-9.7 8-14.2c3-4.4 6.2-8.5 9.5-12.2 3.2-3.7 6.6-7 10-9.6 3.6-2.6 7-4.7 10.6-6.2C55.3 1.3 59 .5 62.3.5c4 0 8 1 11.6 3.3 3.7 2.2 7.2 5.7 10.5 10.6.7 1 1.2 2.2 1.4 3.3L86 21c0 2.2-.6 4-1.7 5.4-1 1.3-2.5 2-4 2-1.4 0-2.7-.7-4-2.2-1-1.5-2.5-3.6-4-6.4-1.4-2.5-3-4.3-4.6-5.4-1.8-1-3.6-1.7-5.6-1.7-3 0-6.4 1.3-9.8 4-3.5 2.4-7 5.8-10.4 10-3.4 4.2-6.7 9-10 14.3-3 5.4-5.8 11-8.2 16.6-2.4 5.6-4.3 11.2-5.8 16.6-1.4 5.5-2 10.5-2 14.8 0 1.5 0 3 .2 4.5s.6 3 1 4.2c.7 1.2 1.4 2.3 2.4 3 1 1 2 1.3 3.5 1.3 1.7 0 3.5-.6 5.6-1.7 2-1 4-2.5 6.3-4.3 2.2-1.7 4.4-3.7 6.7-6 2.2-2.2 4.3-4.5 6.2-6.8 2-2.2 3.7-4.4 5.2-6.5 1.5-2 2.6-4 3.3-5.5L63 52.8c.6-2 1.6-3.3 2.8-4.2 1.2-.8 2.4-1.2 3.7-1.2.6 0 1.2 0 1.8.3.7.2 1.2.5 1.7 1 .5.4 1 1 1 1.7.4.7.6 1.5.6 2.4 0 2.5-.2 5-.7 7-.5 2.2-1 4.4-1.8 6.4L70 72.5c-1 2-1.7 4.3-2.5 6.6zM150.6 94.4c-2 2.6-4.2 5-6.8 7.6-2.6 2.5-5.2 4.7-8 6.6-2.6 2-5.3 3.5-8 4.6-2.6 1.2-5 1.8-7 1.8-2.2 0-4-.7-5.2-2-1.3-1.5-2-4-2-7.3 0-2.4.4-5.2 1-8.3-1 2-2.5 4-4.2 6-1.7 2.2-3.7 4-6 5.8-2 1.7-4.5 3-7.2 4.2s-5.7 1.6-9 1.6c-1.4 0-2.8-.2-4-.6-1.4-.3-2.6-1-3.6-1.8-1-1-2-2-2.5-3.6-.5-1.5-.8-3.3-.8-5.5 0 0 0-1 .3-2.4 0-1.5.7-4 1.7-7.2 1-3.3 2.4-7.6 4.3-12.8 2-5.3 4.8-11.6 8.4-19 .8-2 2-3.5 3-4.4 1.3-.8 2.6-1.3 4-1.3.6 0 1.3 0 2 .3.6.2 1.2.5 1.8 1 .5.3 1 .8 1.3 1.4.5.6.7 1.2.7 2 0 .5 0 1-.2 1.5-.2 1-.7 2-1.4 3.5l-2.5 5c-1 1.7-2 3.7-3 6l-3 6.5c-1 2.3-1.7 4.6-2.4 7-.6 2.3-1 4.6-1 7 0 .8.2 1.7.6 2.4.5.7 1.2 1 2.2 1 3 0 5.6-.8 8.2-2.7 2.6-2 5-4.2 7-7 2.3-2.8 4.3-5.7 6-9 2-3 3.4-6 4.6-8.7l2.2-5.7 2-5.7c.8-1.7 1.6-3.2 2.6-4.3s2.2-1.7 3.6-1.7c1.6 0 3 .6 3.8 1.8 1 1.3 1.4 2.7 1.4 4.3 0 1-.3 2.3-1 4l-2.2 5.5c-1 2-1.8 4.4-3 6.8-1 2.4-2 4.8-2.8 7.3-1 2.3-1.7 4.8-2.3 7-.7 2.5-1 4.7-1 6.7s1 2.8 3 2.8c1.3 0 3-.5 5-1.4 2-.8 4-2 6.4-3.8 2.2-1.7 4.4-3.7 6.6-6 2.2-2.3 4.2-4.8 6-7.4l.6 10.6z"/><path d="M152.6 90.5c-.5 1.2-1 2.6-1.4 4.2-.5 1.6-.7 3-.7 4.2 0 .7 0 1.3.4 1.8.2.5.7.7 1.4.7 1 0 2-.3 3.5-1l4.3-2.5c1.6-1 3.3-2.3 5-3.7l5.2-4.3 5-4.4 4-4c.5-.5 1-.8 1.4-1l1-.2c1 0 1.7.4 2.3 1 .6 1 .8 1.8.8 3 0 1-.2 2.3-.8 3.7-.6 1.4-1.7 2.8-3.2 4l-8.5 8.8c-3 2.8-5.7 5.2-8.5 7.3-3 2.2-5.7 4-8.5 5-2.7 1.4-5.5 2-8 2-2 0-3.4-.3-4.6-1-1.3-.4-2.3-1.2-3-2.2-.7-1-1.2-2.2-1.5-3.5-.4-1.4-.5-2.8-.5-4.3 0-2.6.3-5.2 1-7.8.6-2.7 1.3-5.2 2.2-7.4 1.6-4 3-8 4.7-12l4.2-11 20-50.4c.8-2 1.8-3.5 3.2-4.3 1.3-.7 2.7-1 4-1 1.4 0 2.6.3 3.8 1.2 1 1 1.6 2.3 1.6 4.3 0 1-.2 2-.5 3-.4 1-1 2-1.4 3.3-1.2 2.4-2.5 5.4-4 9l-5 11.5-5.3 13-5.3 13-5 12.3-3.8 10z"/><path d="M246 76.4c.5-.4 1-.8 1.6-1 .6-.3 1-.4 1.5-.4 1 0 1.8.4 2.3 1.3.5.8.7 2 .7 3 0 1.5-.3 3-1 4.3-.4 1.4-1.3 2.5-2.5 3.5-4.7 4.2-9 8-12.6 11.5-3.8 3.4-7.3 6.3-10.5 8.8-3.3 2.5-6.5 4.4-9.6 5.7-3.2 1.4-6.6 2-10 2-3.5 0-6-.7-8-2-1.7-1.6-2.6-3.6-2.6-6v-.7-.7c.3-1.5 1-3.3 2-5.3 1.3-2 2.7-4.2 4.4-6.4l5.3-6.7c2-2.2 3.8-4.3 5.4-6.4 1.6-2 3-4 4-5.5 1-1.7 1.5-3 1.5-4 0-.7-.3-1.2-.7-1.6-.5-.4-1.2-.6-2.2-.6-1.7 0-3.5.4-5.3 1.3-2 1-3.7 2.2-5.6 3.7-1.7 1.5-3.5 3.3-5.2 5.3l-5 6s-2.8 4.4-4 6.6c-1.3 2-2.3 4-3.2 6-.3.5-.7 1.3-1 2.3-.6 1-1 2.3-1.7 3.6l-2 4c-.6 1.3-1 2.7-1.7 4l-1.4 3-1 2-1 2.8c-.6 1.3-1 2.8-1.8 4.5l-2 5.5c-.8 2-1.5 3.8-2 5.5-.8 1.7-1.3 3.2-1.8 4.5l-1 2.7c-.4 1.3-1 2.6-1.5 3.8l-2 3.2c-1 1-1.8 1.6-2.7 2-1 .7-2 1-3.4 1-1.7 0-3-.4-4-1.2-1-.7-1.5-2.2-1.5-4.3 0-1 0-2 .4-3.2 0-1 .5-2.2.8-3.2l1.3-3.2c.5-1 1-2 1.2-3l7.3-15.5c2.4-5 4.8-10.3 7-15.4 2.3-5.2 4.4-10.2 6.3-15 2-5 3.6-9.8 4.8-14.3.4-1 1-2.3 1.5-4l2.2-5c.8-1.7 1.7-3.2 2.7-4.4.8-1.3 2-2 3-2 1.8 0 3 .5 4 1.3.7.8 1 2 1 3.5v1.5l-.4 2.2c0 .7-.3 1.4-.4 2-.2.8-.3 1.3-.5 1.6L201 66c2-1.7 3.8-3.3 6-4.7 2-1.3 4-2.4 6-3.3 2.2-1 4.3-1.4 6.4-1.4 1.4 0 3 .2 4.3.7 1.4.4 2.7 1 3.8 1.8 1 .8 2 1.8 2.7 3 .7 1.3 1 2.7 1 4.3 0 2.2-.4 4.5-1.5 7-1 2.3-2.4 4.8-4 7.2-1.7 2.4-3.5 4.8-5.3 7l-5.3 6.5-4 4.8s-1.8 2.2-1.8 2.7c0 .6.2 1 .6 1.5.4.4 1 .6 2 .6.7 0 1.8-.4 3.2-1.3 1.5-.8 3.5-2.2 6-4.3 2.7-2 6-4.8 10-8.3l15-13z"/></svg>
