<svg xmlns="http://www.w3.org/2000/svg" viewBox="0 0 299.215 299.215"><path d="M22.3 0c-2.7 0-4.8 2.2-4.5 5L41 265c.2 2.8 2.6 5.6 5.2 6.3l98.4 27.4c2.7.7 7 .7 9.7 0l98.6-27.4c2.6-.7 5-3.6 5.2-6.3L281.4 5c.3-2.8-1.8-5-4.5-5H22.2zM232 59.6l-.8 9.5-.6 7-.8 8.6-.4 3.7H107.8c-2.8 0-4.8 2.3-4.6 5l2 24c.4 2.7 2.8 5 5.6 5H222c2.5 0 4.3 2 4 4.4l-.8 9.4-7 77.3c0 2.8-.4 6.3-.6 7.8 0 1.6-2.4 3.5-5 4.2l-58.2 16c-2.6 1-4.8 1.5-5 1.5l-4.8-1.3-58.2-16.2c-2.6-.7-5-3.6-5.2-6.3l-3.8-42c-.2-3 1.8-5 4.6-5h23.3c2.7 0 5 2 5.4 5l1.4 16.3c.4 2.8 2.8 5.6 5.4 6.3l27.2 7.4 5 1.3 4.7-1.3 27.3-7.4c2.7-.7 5-3.6 5.3-6.3l2.8-33c.3-2.7-1.8-5-4.5-5H80.6c-2.8 0-5.3-2.2-5.5-5L68 69.2l-.8-9.4c-.2-2.4 1.8-4.4 4.6-4.4h155.8c2.8 0 5 2 4.6 4.4z"/></svg>
