<svg xmlns="http://www.w3.org/2000/svg" width="512" height="512" viewBox="0 0 512 512"><path fill-rule="evenodd" clip-rule="evenodd" d="M1 .5C.4.5.5 1.3.5 2v509c169.4 1 340.8 0 511 .4V.4H1zm259 451.7c-12 12-30.6 19-53.5 19-37.7 0-58.6-18.4-72-43.8 13-8.2 26-16 39.4-23.8 5.4 15.3 23.8 32.4 44.6 22 13.2-6.8 11.7-27.2 11.7-49.2v-140c0-.6 0-1.2.4-1.3H278v117.6c0 42.6 3 78.4-18 99.6zM470.6 410c-2.7 39.8-35.2 61-79.2 61-43 .2-70.6-19-87.4-48.5 12.2-8.3 26-15 38.5-22.8 10 15.8 27.5 31 53.4 28.7 16-1.4 34.8-14.6 24.2-34.5-5-9.8-17.5-14.7-28.7-19.5-35.3-15.5-76.8-29.6-72.8-85 1.3-18.5 9.8-31.6 21-40.8 11.2-9.5 26.3-16 46.5-16.5 36.6-1.2 56.7 15 70.4 37.8-11.7 9-24.5 16.7-37.4 24.3-4.2-13-24.6-25.6-41.8-18-7.7 3.6-14.7 13.8-10.6 26.3 3.6 11 18.5 17.2 30.6 22.3 36.3 15.5 77 30.7 73.3 85z"/></svg>
