<svg viewBox="0 0 380 665" xmlns="http://www.w3.org/2000/svg" fill-rule="evenodd" clip-rule="evenodd" stroke-linejoin="round" stroke-miterlimit="1.4"><path d="M84.6 657.3h-5v-.2H76l-.2-.2h-1.3l-.3-.2h-.7c-.2 0-.3 0-.5-.2H71.8l-.2-.2h-.7l-.3-.2h-.7l-.4-.2h-.6l-.2-.2H68v-.2H66.8l-.2-.2H66v-.2h-.3l-.6-.2h-.4v-.2H64l-.3-.2H63v-.2h-.6l-.3-.2H61.7l-.3-.3c-.3 0-.5 0-.6-.2H60.3l-.2-.2h-.4v-.2H59l-.2-.2h-.4l-.2-.2h-.4v-.2c-.3 0-.5 0-.6-.2-10-3.7-18.5-9.3-25.6-16.2-22.8-21.6-33-55.6-18.3-82.2 0 0 189.7-486.3 188-488.5V64.4l-.2-.5v-.4l-.2-.4v-.5l-.2-.4-.2-.4v-.5l-.2-.4-.2-.3v-.4l-.2-.4v-.2l-.2-.3V59l-.2-.5-.2-.5-.3-.5-.3-.5-.2-.5-.2-.6-.2-.2v-.5l-.4-.7v-.2l-.2-.4-1-2-.3-.7v-.5l-.2-.2v-.3l-.2-.3v-.2l-.2-.2v-.2l-.3-.5V48.3l-.3-.5v-.5h-.2V47h-.2v-.2-.3l-.2-.2V46 46l-.2-.3V45l-.2-.3v-.4h-.2V44v-.4h-.2v-.8c-.2 0-.2-.2-.2-.3V42c-1-4-1.5-8.5-1-14.7 2-25.7 49.7-21.7 103.5 0C349.2 49 377.5 80 369 101c-3 7-12 11-26.4 19-5.6 11-187 488.4-187 488.4C145 636.6 119.2 654.6 91 657h-1.2l-.3.2h-4.9zm114.8-387.7C156 274 135.4 296 120 336L34.7 558.3c-10.6 27.6 3 58.5 30.7 69 27.6 10.7 58.5-3 69-30.7l145.6-379c-18 20.4-37.2 47.6-80.6 52zM317.6 85.8l7.8.6h3.3c5.2-.5 8.6-2 9.7-4.5 3.3-8.4-19.2-25.3-50.2-37.8l-5.8-2.3-.7-.3-5-1.8-5.6-2-5.2-1.5-5.2-1.4-5-1-3.5-.7c-.3 0-.7 0-1-.2-1.4 0-2.6-.3-4-.5h-.4l-4-.4h-7.1c-1 0-2 .2-3 .4-1.7.3-3.2.8-4.3 1.4l-1.5 1.2-1 1.4c-3.2 8.3 19.3 25 50.4 37.7 2 1 4 1.6 6 2.3 1.8.8 3.7 1.4 5.5 2l2.8 1c1 .3 2 .6 2.8 1l10.6 2.8c2 .6 4.2 1 6.2 1.5 1.2.2 2.3.5 3.5.6 1.5.4 3 .6 4.3.8z"/><g transform="translate(87 343)"><path d="M37 120c11 0 20-9 20-20s-9-20-20-20-20 9-20 20 9 20 20 20z"/><circle cx="92.5" cy="51.5" r="10.5"/><circle cx="9" cy="130" r="9"/><circle cx="55.5" cy="7.5" r="7.5"/><circle cx="44.5" cy="192.5" r="7.5"/></g></svg>
