<svg xmlns="http://www.w3.org/2000/svg" width="114.2" height="121.1" viewBox="0 0 114.243 121.088"><path fill="#131B28" d="M114.3 121l14 .2h-14z"/><path d="M15 33.5c-8.4 12-7.3 27.6-1 40.3l.5 1 .3.5s0 .2.2.3l.3.6.6 1 .3.6.7 1c0 .3.2.4.3.6l1 1.5h.2c.3.6.6 1 1 1.4l.3.4 1 1c0 .2 0 .3.2.5l1.2 1.3 1.3 1.4.4.4.8 1c.2 0 .3.2.4.3l1.4 1.2.2.2 1.2 1c.2 0 .4.2.5.4l1 .8c.2 0 .4.2.6.4.5.2.8.5 1.2.8.2 0 .3.2.4.3.5.2 1 .4 1.2.7.2 0 .4.2.5.3l1.7 1 .5.3 1.3.8.7.4 1 .5h.2s.2 0 .3.2l1.5.7h.3l1.7.7c.2 0 .3 0 .4.2.5 0 1 .3 1.6.5h.2l1.8.6c0 .2.2.2.4.3l2 .5c40.2 7.3 52-24.2 52-24.2C91 90.4 73.5 93.8 57 90c-.6 0-1.2-.3-1.8-.5-.2 0-.3 0-.5-.2-.6 0-1.2-.3-1.7-.5h-.3L51 88h-.3L49 87h-.3l-1.4-.8c-.2 0-.3 0-.5-.2l-1-.6c-.3 0-.6-.2-.8-.3l-1.3-.8c-.2 0-.3 0-.5-.2l-1.7-1-.5-.4-1.2-1s-.3 0-.4-.2c-.4-.3-.8-.5-1-.8l-.7-.4-1-.8-.5-.4-1.3-1-.2-.2-1.4-1.3c0-.2-.2-.3-.4-.4l-1-1-.3-.4c-.4-.4-1-.8-1.2-1.3-.5-.6-1-1-1.3-1.5 0-.2-.2-.3-.4-.4l-.8-1-.4-.4-1-1.4c-9.2-12.5-12.5-29.8-5-44"/><path d="M41 23c-6 8.7-5.8 20.3-1.2 29.5.7 1.6 1.6 3 2.6 4.5 1 1.3 2 3 3 4l1.4 1.4.3.3c.6.5 1 1 1.5 1.3.6.5 1 1 1.7 1.4l.3.3c.6.4 1 1 1.7 1.3l.8.5.4.3 1.2.7h.2l1 .8c.2 0 .4 0 .5.2l.8.4h.2l1.6.7s.2 0 .3.2c.6 0 1 .2 1.5.4l.5.2 1.2.5.6.3c.6 0 1 .4 1.7.5 31 5.5 38.5-18.4 38.5-18.4-6.5 9.3-19 13.6-32.5 10l-1.7-.6c-.2 0-.4 0-.6-.2-.4 0-.8-.2-1.2-.4-.2 0-.4 0-.5-.2l-1.4-.6H65l-1.6-1c-.3 0-.6-.2-.8-.3-.2 0-.4 0-.5-.2-.5 0-.8-.3-1-.5-.2 0-.3 0-.4-.2-.4 0-.8-.4-1.2-.7 0 0-.3 0-.4-.2-.3 0-.5-.3-.8-.5l-1.7-1.2-.3-.3c-5.8-4.7-10.4-11-12.5-18.3C41.4 31.3 42 23 46 16.2"/><path d="M62.6 16c-3.5 5-4 11.6-1.4 17.4 2.6 6 8 11 14 13.2.4 0 .6.2 1 .3h.2c.4 0 .8.2 1 .3 17.3 3.3 22-8.8 23.2-10.6-4 6-11 7.3-19.3 5.2l-2-.7-2.5-1c-1.5-.7-3-1.6-4.2-2.6C65 32 60.4 21 65.3 12.2"/></svg>
