<svg xmlns="http://www.w3.org/2000/svg" width="32" height="32" viewBox="0 0 32 32"><path d="M9 10.4v7.2c0 1 0 1 1 1.3l-.3 1c-.4 0-1 0-1.3-.2-.8-.3-1-1-1-1.7v-6.5h-1c-.2.2-.4.5-.4 1V15c-.2.5-.4 1-.8 1.2.6.6.7 1.3.7 2V20c0 .8.2 1 1 1h.2v1.2c-.6 0-1.2 0-1.8-.3-.5-.5-.8-1-.8-1.6v-2-.4c0-.7-.3-1-1-1.2v-1c.7-.3 1-.6 1-1.4v-1.6-1c.2-.8.8-1.2 1.7-1.4H9zm2.5 6.8c0 .7.5 1.4 1.3 1.6.8 0 1.5 0 2.3-.2l.2 1v.2c-1.2.3-2.4.4-3.5 0-.7-.3-1.2-.8-1.5-1.5-.4-1-.4-2.2 0-3.3.8-1.5 2.7-2 4-1.3 1 .4 1.3 1 1.4 2V17h-4zm2.7-1c0-1-.5-1.6-1.3-1.6-1 0-1.5.7-1.5 1.5h2.7zm10.6 6v-1l.4-.2c.6 0 .8-.3 1-1v-1.7-.8c0-.5.3-1 .7-1.2-1-.5-1-1.3-1-2v-1.7c0-.8-.2-1-1-1h-.2v-1.2c.7 0 1.3 0 2 .4.4.3.6 1 .6 1.4V15c.2.5.6.7 1 .7v1c-.4.2-.8.4-1 1V20c0 1.2-.6 1.8-1.7 2h-1zm.3-8.5l-.2 1c-.6 0-1.2-.2-1.8 0-.4 0-.6 0-.7.4 0 .4 0 .7.5 1 .3 0 .6 0 1 .3 0 0 .3 0 .5.2 1 .5 1.2 1 1 2 0 .7-.5 1.3-1.4 1.5-1 .2-2.2 0-3.3-.3l.3-1c.4 0 1 0 1.3.2.4 0 .8 0 1-.2.4 0 .6 0 .6-.4 0-.3 0-.5-.3-.7-.3 0-.6-.3-1-.4-.3-.2-.7-.3-1-.6-1-.5-1-2.4 0-3l1.2-.3c.6 0 1.4 0 2 .3zm-4.7 0l-.3 1c-.6 0-1.2-.2-1.8 0-.4 0-.6 0-.7.4 0 .4 0 .7.5 1l1 .3c.2 0 .3 0 .5.2 1 .5 1.2 1 1 2 0 .8-.6 1.4-1.5 1.5-1 0-2 0-2.7-.2-.3 0-.4 0-.3-.4 0-.2 0-.5.2-.8.5 0 1 .2 1.3.3.4 0 .8 0 1-.2.4 0 .6 0 .7-.4 0-.3 0-.5-.3-.7l-1.2-.5c-.3 0-.6-.3-1-.5-1-.6-1-2.4.2-3 .5-.2 1-.3 1.7-.3l1.6.2z"/></svg>
