<svg version="1.1" id="Layer_1" xmlns="http://www.w3.org/2000/svg" xmlns:xlink="http://www.w3.org/1999/xlink" x="0px" y="0px" width="211px" height="181px" viewBox="0 0 211 181" enable-background="new 0 0 211 181" xml:space="preserve">
<g id="_x23_ffffffff">
	<path d="M74.81,0h6.82c26.66,1.77,51.5,15.27,70.32,33.78c-9.65,6.55-19.05,13.86-25.931,23.41
		c3.271,12.75,14.28,22.13,26.66,25.64c-4.72-2.97-9.47-6.08-13.1-10.38c-3.48-3.97-5.78-8.81-7.49-13.77
		c13.03-14.85,28.99-27.93,47.84-34.48C198.99,39.54,209.77,63.71,211,87.91v7.17c-1.141,21.88-8.99,43.37-22.18,60.85
		c-4.801,6.15-10.28,11.971-16.961,16.101c-4.139,0.56-8.219-2.29-9.989-5.94c5.47-12.3,10.33-24.93,13.45-38.04
		c1.68-7.8,3.33-16.21,0.47-23.94c-1.399-3.819-4.37-7.789-8.75-8.069c-4.681-0.101-8.38,3.649-10.45,7.51
		c-13.1,23.03-18.01,49.42-23.26,75.06c-10.76,2.421-22.49,3.66-33.05-0.219c-0.81-16.261,1.72-32.94-2.69-48.86
		c-1.72-5.561-5.2-12.08-11.57-12.931c-6.85,0.041-10.61,7.09-12.45,12.791c-4.54,15.399-3.76,31.76-2.54,47.579
		c-4.74,2.64-10.14,3.761-15.51,4.03H50.6c-5.58-0.3-11.11-1.28-16.4-3.05c-4.74-30-13.19-59.261-22.06-88.25
		c-2.3,11.11-3.16,22.479-3.01,33.819c-3.14-3.539-4.73-8.08-5.97-12.56C1.21,103.859,0.42,96.51,0,89.18v-8.96
		c0.37-5.729,0.7-11.53,2.4-17.05c4.96-16.86,14.29-32.6,27.46-44.33C42.2,7.8,58.28,1.05,74.81,0z"></path>
</g>
</svg>
