<svg version="1.1" id="Layer_1" xmlns="http://www.w3.org/2000/svg" xmlns:xlink="http://www.w3.org/1999/xlink" x="0px" y="0px" width="32px" height="32px" viewBox="0 0 32 32" enable-background="new 0 0 32 32" xml:space="preserve">
<path d="M5.082,5.593C4.518,6.157,4.659,6.806,5.646,8.272c0.508,0.761,1.1,1.946,1.326,2.623c0.226,0.705,0.677,1.664,0.987,2.143
	c0.564,0.79,0.564,0.959,0.197,2.397c-0.226,0.902-0.31,2.031-0.197,2.736c0.169,1.185,1.128,2.905,1.72,3.103
	c0.508,0.168,1.241-0.733,1.269-1.551c0-0.705,0.028-0.733,0.338-0.227c0.536,0.874,2.228,2.734,2.369,2.594
	c0.056-0.056-0.31-0.79-0.846-1.607c-0.508-0.846-1.1-1.945-1.325-2.453c-0.31-0.846-0.423-0.902-0.79-0.508
	c-0.226,0.226-0.508,0.873-0.592,1.465c-0.226,1.354-0.733,1.523-1.128,0.367c-0.395-1.155-0.395-3.13,0-4.483
	c0.282-0.931,0.254-1.184-0.226-1.89c-0.31-0.423-0.79-1.438-1.044-2.256C7.45,9.934,6.858,8.75,6.379,8.129
	c-1.1-1.551-1.1-2.115,0.056-1.89c0.479,0.085,1.213,0.423,1.664,0.733c0.423,0.31,1.156,0.564,1.607,0.564
	c1.354,0,3.723,1.326,5.443,3.046c1.326,1.325,2.001,2.397,3.441,5.302c1.692,3.44,1.833,3.638,2.877,3.976
	c1.241,0.424,3.835,2.002,3.835,2.342c0,0.113-0.649,0.281-1.438,0.338c-2.114,0.227-2.312,0.62-0.93,1.861
	c0.648,0.563,1.861,1.438,2.735,1.918l1.579,0.901l-0.732-0.931c-0.424-0.508-1.298-1.297-1.975-1.721
	c-0.678-0.422-1.213-0.873-1.213-0.986s0.479-0.311,1.072-0.395c1.578-0.283,2.029-0.424,2.029-0.705
	c0-0.424-2.848-2.566-4.201-3.159c-1.156-0.536-1.297-0.763-2.793-3.835c-1.326-2.82-1.86-3.61-3.553-5.302
	c-2.171-2.171-3.666-3.102-5.584-3.384C9.65,6.689,8.748,6.351,8.353,6.069C7.422,5.364,5.533,5.11,5.081,5.59L5.082,5.593z"></path>
</svg>
