<svg version="1.1" id="Layer_1" xmlns="http://www.w3.org/2000/svg" xmlns:xlink="http://www.w3.org/1999/xlink" x="0px" y="0px" width="32px" height="32px" viewBox="0 0 32 32" enable-background="new 0 0 32 32" xml:space="preserve">
<path d="M10.372,13.069H6.405L4.69,21.753h2.037l0.429-2.251h1.93c1.822,0.107,3.86-1.395,3.86-3.967
	C12.946,14.034,12.088,13.176,10.372,13.069L10.372,13.069z M8.871,17.895H7.584l0.536-3.217h1.394c0.75,0,1.287,0.322,1.287,0.965
	C10.694,17.466,9.836,17.787,8.871,17.895z M17.555,13.069h-1.93l0.429-2.251h-2.037l-1.715,8.684h2.037l0.965-4.824h1.608
	c0.751,0,0.751,0.322,0.643,0.858l-0.75,3.967h2.145l0.75-4.396C19.913,14.035,19.27,13.177,17.555,13.069L17.555,13.069z
	 M24.738,13.069h-3.967l-1.715,8.684h2.036l0.429-2.251h1.931c1.823,0.107,3.86-1.395,3.86-3.967
	C27.312,14.034,26.454,13.176,24.738,13.069L24.738,13.069z M23.236,17.895H21.95l0.536-3.217h1.394
	c0.751,0,1.287,0.322,1.287,0.965C25.061,17.466,24.202,17.787,23.236,17.895z"></path>
</svg>
