<svg version="1.1" id="Layer_1" xmlns="http://www.w3.org/2000/svg" xmlns:xlink="http://www.w3.org/1999/xlink" x="0px" y="0px" width="427px" height="320px" viewBox="0 0 427 320" enable-background="new 0 0 427 320" xml:space="preserve">
<g id="_x23_040707ff">
	<path d="M185.9,0h14.48c15.75,0.99,31.81,3.98,45.54,12.13c9.92,5.89,18.58,15.03,21.38,26.49c4.44,15.26,0.7,31.66-6.09,45.63
		c-12.97,25.77-36.819,45.68-64.23,54.49c-19.83,6.84-41.12,9.99-62.05,7.69c-11.75-1.09-23.24-6.35-31.25-15.1
		c-2.91-3.29-5.44-7.42-5.39-11.95c0.57-1.24,2.38-2.68,3.54-1.2c3.09,2.56,5.61,5.83,9.19,7.77c11.78,6.89,26.01,7.64,39.26,5.95
		c27.64-3.57,54.6-15.37,74.541-35.08c9.229-9.39,17.15-20.67,20.209-33.64c1.611-8.69,1.201-19.05-5.84-25.37
		c-10.859-9.7-26.239-11.53-40.219-11.95c-30.51,0.14-60.12,10.23-86.95,24.18C90.97,61.03,70.23,73.48,53.45,90.49
		c-11.45,11.6-21.22,26.58-21.09,43.45c-0.42,12.07,6.06,23.06,14.12,31.55c16.02,16.9,36.9,28.25,52.85,45.24
		c13.04-7.061,25.98-14.33,39.05-21.33c4.43-2.08,6.58-6.73,9.99-9.971c7-7.09,15.16-13.57,24.82-16.5
		c5.97-1.82,13.87-1.359,17.48,4.48c3.77,6.359,2.99,14.17,2.27,21.21c4.03-2.64,9.88-2.49,13.15,1.29
		c2.17,3.49,0.14,7.66-0.64,11.279c-3.28,11.511-6.23,23.121-8.76,34.82c-1.01,4.49-1.19,9.12-0.76,13.7
		c3.38-2.84,4.85-7.09,6.85-10.88c9.96-20.68,19.02-41.79,28.361-62.76c2.969-6.98,6.439-13.851,7.83-21.37
		c0.709-2.24,0.819-5.31,3.329-6.34c5.79-2.67,12.44-2.33,18.66-2.01c2.44,0.25,6.22,1.6,5.7,4.7c-0.891,5.03-3.45,9.61-4.189,14.7
		c-1.631,7.13-0.83,14.5,0.559,21.6c1.08,4.49,3.4,8.53,5.361,12.67C276.84,186.05,285,171.87,291.88,157.06
		c3.07-6.11,3.21-13.16,6.03-19.36c0.92-2.72,4.279-2.75,6.609-3.46c6-0.94,12.771-2.15,18.341,0.979
		c3.229,2.32,0.21,6.38-0.36,9.33c-3.72,9.27-4.13,19.58-2.1,29.29c1.729,6.71,5.39,12.68,8.439,18.85
		c9.82-4.5,20.311-7.89,31.16-8.449c15.75-1.44,32.38,1.08,45.79,9.9c11.16,7.139,19.64,18.889,21.21,32.239v7.25
		c-1.5,11.88-11.28,22.63-23.3,24.2c-0.25-0.73-0.73-2.189-0.98-2.91c5.311-3.66,11.05-7.449,13.61-13.67
		c4.12-8.26,0.52-17.939-4.68-24.82c-8.66-11.24-23.051-16-36.641-17.689c-11.1-0.721-22.54-1.211-33.3,2.109
		c-2.65,0.76-5.26,1.621-7.88,2.471c2.82,8.52,5.54,18.25,1.27,26.8c-5.949,11.95-18.06,19.59-30.379,23.739
		c-4.611,1.781-10.591,2.67-14.531-1.029c-4.279-3.811-3.149-10.28-2.39-15.311c3.56-13.789,13.47-24.91,24.08-33.939
		c-5.95-10.48-9.649-22.04-11.61-33.9c-7.42,15.041-15.91,29.541-25.369,43.391c3.609,9.01,6.59,19.08,3.699,28.729
		c-2.3,8.771-9.01,15.681-16.85,19.88c-9.04,4.92-19.33,8.221-29.73,7.49c-3.439-0.23-7.619-2.33-7.81-6.189
		c-0.54-3.771,1.81-6.951,3.979-9.74c9.021-11.471,19.15-22.061,27.431-34.1c-2.56-5.091-5.21-10.141-7.341-15.42
		c-2.779-6.771-3.889-14.051-5.909-21.051c-10.021,26.92-22.931,52.689-37.04,77.689c-3.42,5.66-7.64,11.361-13.74,14.301
		c-5.13,2.39-11.12-1.12-13.01-6.1c-3.33-8.5-2.66-17.851-1.59-26.721c-4.02,9.77-8.23,19.49-13.42,28.689
		c-2.66,4.531-6.32,9.311-11.84,10.23c-4.57,0.67-9.9,0.34-13.37-3.09c-3.92-3.8-6.36-8.811-8.36-13.82
		c-3.24-8.879-5.18-18.359-4.39-27.84c0.78-9.369,2.44-18.72,5.44-27.64c-7.97,4.36-15.8,8.979-23.65,13.55
		c6.66,14.28,6.49,30.85,3.01,45.95c-6.87,27.8-32.42,49.95-61.07,52.13h-9.27c-5.48-1.04-11.72-1.04-16.1-4.98
		c-7.42-6.319-10.57-16.479-10.21-26c0.53-10.51,4.49-20.899,11.45-28.84c15.87-17.939,37.23-29.699,58.2-40.66
		c-4.28-4.129-9.26-7.399-14.06-10.869c-17.13-11.961-34.95-23.34-49.43-38.59C10.29,160.16,2.3,147.98,0,134.14v-6.53
		c1.24-11.37,5.9-22.05,11.96-31.65C20.42,82.48,31.67,71,43.71,60.7c20.65-17.12,44.21-30.45,68.71-41.2
		c14.33-6.11,28.9-11.94,44.15-15.29C166.16,1.71,176.07,0.93,185.9,0 M165.51,187.529c-6.64,8.41-11.57,18.171-14.9,28.341
		c-2.95,11.271-4.89,23.47-1.43,34.86c0.68,1.479,0.94,3.859,2.9,4.149c2.79,0.39,4.02-2.61,5.35-4.47
		c5.13-8.76,8.3-18.46,12.06-27.83c3.06-7.52,5.77-15.18,8.26-22.91c1.8-6.66,4.61-13.26,3.94-20.311
		C175.12,177.57,169.62,183.16,165.51,187.529 M317.44,212.25c-4.78,4.45-9.061,9.58-11.891,15.5c-2.03,4.439-4.489,8.95-4.18,14.01
		c5.42-1.66,10.59-4.82,13.83-9.55c3.229-5.01,4.85-11.29,3.6-17.19C318.4,214.1,318.64,212.54,317.44,212.25 M63.59,248.54
		c-7.99,6.28-15.83,13.431-19.97,22.931c-2.81,5.719-4.25,12.379-2.65,18.649c1.44,4.47,6.61,6.351,10.94,5.979
		c8.01-0.859,15.57-4.359,21.96-9.189c10.86-8.46,19.07-20.68,21.39-34.37c1.85-7.97,0.59-16.16-1.29-23.99
		C83.32,234.359,73.18,241.109,63.59,248.54 M240.3,256.05c4.49-0.55,8-3.59,11.341-6.35c5.619-4.681,9.889-11.36,10-18.87
		C255.04,239.67,247.43,247.65,240.3,256.05z"></path>
</g>
</svg>
