<svg version="1.1" id="Layer_1" xmlns="http://www.w3.org/2000/svg" xmlns:xlink="http://www.w3.org/1999/xlink" x="0px" y="0px" width="189.5px" height="173.5px" viewBox="0 0 189.5 173.5" enable-background="new 0 0 189.5 173.5" xml:space="preserve">
<g id="_x23_fec62eff">
	<path d="M29.58,19.208c10.51-4.56,21.03-9.15,31.63-13.5c21.73,0.02,43.47,0.02,65.2,0c9.7,3.95,19.28,8.24,28.94,12.3
		c1.08,0.55,2.399,0.8,3.229,1.75c8.4,9.4,16.551,19.01,24.99,28.37c-29.74,40.07-59.83,79.89-89.61,119.931
		c-0.21-0.191-0.63-0.57-0.84-0.76C63.42,127.587,33.66,87.918,4,48.168C12.62,38.598,20.9,28.718,29.58,19.208 M44.51,21.578
		c-0.06,0.271-0.16,0.81-0.22,1.08c7.63,2.93,14.77,7.04,22.33,10.13l1.44,0.69c17.15,0.05,34.29,0.05,51.439,0l1.44-0.66
		c7.55-3.14,14.729-7.2,22.36-10.18c-0.061-0.27-0.17-0.8-0.23-1.06c-7.49-2.82-14.71-6.27-22.109-9.29
		c-1.75-1.03-3.811-0.41-5.711-0.55c-14.299,0-28.6-0.01-42.91,0c-1.89,0.08-3.85-0.33-5.66,0.37
		C59.28,15.238,52.01,18.708,44.51,21.578 M14.39,49.318c7.86,6.27,15.89,12.32,23.84,18.48c6.21-9.06,12.31-18.21,18.74-27.11
		c-0.68-1.19-2.23-1.35-3.31-2.02c-7.76-3.61-15.4-7.48-23.23-10.92C25.09,34.948,19.94,42.288,14.39,49.318 M130.22,40.258
		c6.311,9.21,12.52,18.52,19.061,27.54c7.649-6.42,16.01-12.04,23.529-18.58c-5.46-6.93-10.529-14.16-15.77-21.25l-0.69-0.14
		C147.66,32.008,138.96,36.178,130.22,40.258 M68.47,41.308l-0.64,0.25c-6.04,10.53-11.92,21.16-17.95,31.71
		c29.26-0.1,58.52-0.07,87.79-0.02c-5.939-10.57-11.909-21.14-17.899-31.69l-0.601-0.25C102.27,41.358,85.37,41.358,68.47,41.308
		 M24.44,68.038c12.03,16.26,23.8,32.72,35.72,49.07c4.92,6.7,9.45,13.7,14.79,20.09c-11.7-19.18-23.61-38.239-35.35-57.4
		c-2.99-2.97-6.61-5.29-9.85-8C27.99,70.528,26.59,68.648,24.44,68.038 M156.791,72.418c-3.08,2.59-6.65,4.68-9.32,7.69
		c-11.6,18.97-23.34,37.87-35.01,56.8c5.189-5.869,9.32-12.56,13.97-18.84c12.18-16.609,24.06-33.45,36.44-49.92
		C160.36,68.728,158.85,71.058,156.791,72.418 M51.99,82.828c14.07,24.66,27.72,49.561,41.87,74.161
		c13.921-24.71,27.75-49.481,41.74-74.15C107.73,82.858,79.86,82.878,51.99,82.828z"></path>
</g>
</svg>
