<svg version="1.1" id="Layer_1" xmlns="http://www.w3.org/2000/svg" xmlns:xlink="http://www.w3.org/1999/xlink" x="0px" y="0px" width="600px" height="600px" viewBox="0 0 600 600" enable-background="new 0 0 600 600" xml:space="preserve">
<g id="_x23_4f669bff">
	<path d="M290.47,0h16.5c34.61,1.23,69.13,7.86,101.32,20.78c74.74,29.13,136.34,89.88,166.79,164.07
		c29.82,71.38,30.09,154.45,0.77,226.03c-26.43,65.5-76.93,120.87-139.689,153.25c-38.811,20.351-82.23,31.601-125.97,33.32
		c-43.25,1.63-86.851-6.21-126.75-22.98c-34.31-14.46-65.91-35.35-92.59-61.319C54.72,478.2,27.58,434.01,12.96,385.9
		C4.76,359.23,0.54,331.38,0,303.49v-8.96c0.77-60.24,20.33-120.06,55.5-168.99C89.37,78.02,137.32,40.57,191.9,19.8
		C223.29,7.52,256.83,1.24,290.47,0 M273.5,14.81c-59.17,5.08-116.41,29.5-161.19,68.49c-37.26,32.24-66.05,74.24-82.41,120.74
		c-15.74,44.34-20.04,92.62-12.75,139.08c8.9,57.6,36.26,112.09,76.89,153.84c29.16,30.271,65.15,53.91,104.47,68.75
		c39.53,14.9,82.37,20.88,124.46,17.26c45.23-3.85,89.53-18.68,127.84-43.05c58.631-36.8,103.011-95.64,122.021-162.22
		c13.28-45.91,14.67-95.18,4.12-141.78C560.92,163.76,515.26,98.9,453.03,59.09C400.37,24.79,336.05,9.11,273.5,14.81z"></path>
	<path d="M181.68,70.73c52.77-27.34,115.2-35.08,173.129-22.08c43.53,9.54,84.221,31.02,117.11,61.04
		c-11.87-0.9-24.03,3.41-32.42,11.89c-10.81,10.53-15.68,26.43-13.36,41.26c2.49,17.29,12.341,32.18,21.24,46.79
		c12.38,19.77,22.28,41.76,24.03,65.29c2.41,23.09-4.44,45.68-10.88,67.561c-11.641,37.1-22.471,74.449-33.721,111.68
		c-30.869-91.85-61.77-183.68-92.619-275.54c10.29-0.67,20.6-1.29,30.81-2.73c6.47-1.14,9.9-9.04,7.13-14.79
		c-1.58-4.01-5.95-6.38-10.16-5.97c-27.27,1.71-54.59,3.81-81.93,2.94c-18.03-0.53-36.03-1.81-54.04-2.94
		c-5.3-0.68-10.31,3.51-11,8.72c-1.1,5.05,1.96,10.95,7.24,11.98c9.63,1.39,19.35,2.1,29.05,2.82
		c13.32,36.45,26.62,72.91,39.93,109.36c-18.71,56.07-37.4,112.141-56.09,168.221c-31.15-92.53-62.24-185.07-93.35-277.621
		c10.06-0.6,20.13-1.3,30.13-2.6c5.63-0.64,9.63-6.479,8.63-11.979c-0.51-5.15-5.35-9.36-10.55-8.91
		c-28.41,1.74-56.85,3.95-85.34,2.92C108.78,121.25,142.58,90.9,181.68,70.73z"></path>
	<path d="M523.8,175.87c19.811,36.06,30.62,76.98,31.32,118.11c0.92,45.34-10.46,90.86-32.78,130.34
		c-22.3,39.64-55.35,73.13-94.62,96.069c25.84-74.699,51.67-149.399,77.5-224.09c7.07-18.3,13.36-37,16.771-56.36
		C525.88,218.84,526.57,197.14,523.8,175.87z"></path>
	<path d="M64.66,194.51c40.82,111.67,81.52,223.37,122.31,335.05c-38.09-18.67-71.58-46.699-96.31-81.189
		c-21.27-29.49-36.14-63.57-43.21-99.24C37.07,297.46,43.05,242.61,64.66,194.51z"></path>
	<path d="M226.43,544.73c25.62-74.49,51.24-148.99,76.9-223.471c24.229,66.24,48.37,132.51,72.57,198.76
		c2.71,6.881,4.649,14.08,8.01,20.69C333.51,558.35,277.65,559.97,226.43,544.73z"></path>
</g>
</svg>
