<?xml version="1.0" standalone="no"?><!DOCTYPE svg PUBLIC "-//W3C//DTD SVG 1.1//EN" "http://www.w3.org/Graphics/SVG/1.1/DTD/svg11.dtd"><svg width="100%" height="100%" viewBox="0 0 800 800" version="1.1" xmlns="http://www.w3.org/2000/svg" xmlns:xlink="http://www.w3.org/1999/xlink" xml:space="preserve" style="fill-rule:evenodd;clip-rule:evenodd;stroke-linejoin:round;stroke-miterlimit:1.41421;"><g id="Layer1"><clipPath id="_clip1"><rect x="150.5" y="212.848" width="499" height="457.652"/></clipPath><g clip-path="url(#_clip1)"><path d="M400,35.5l223.5,635l-447,0l223.5,-635Z" style="fill:#ececec;"/><clipPath id="_clip2"><path d="M400,35.5l223.5,635l-447,0l223.5,-635Z"/></clipPath><g clip-path="url(#_clip2)"><path d="M969.404,241.059l-402.556,-82.059l-227.848,646.68l402.556,82.059l227.848,-646.68Z" style="fill:#e2e2e2;"/><path d="M687.508,330.006l-242.508,-171.006l-45.258,176.807l181.509,136.006l106.257,-141.807Z" style="fill:#dcdcdc;"/></g><path d="M536.709,212.848l-229.709,641.089l9.414,3.373l229.709,-641.088l-9.414,-3.374Z" style="fill:#fff;"/></g><path d="M400,336l-62.419,-123.152l124.838,0l-62.419,123.152Z" style="fill:#b7b7b7;"/></g></svg>