<?xml version="1.0" standalone="no"?>
<!DOCTYPE svg PUBLIC "-//W3C//DTD SVG 20010904//EN"
 "http://www.w3.org/TR/2001/REC-SVG-20010904/DTD/svg10.dtd">
<svg version="1.0" xmlns="http://www.w3.org/2000/svg"
 width="1200.000000pt" height="1200.000000pt" viewBox="0 0 1200.000000 1200.000000"
 preserveAspectRatio="xMidYMid meet">
<metadata>
Created by potrace 1.11, written by Peter Selinger 2001-2013
</metadata>
<g transform="translate(0.000000,1200.000000) scale(0.100000,-0.100000)"
fill="#000000" stroke="none">
<path d="M0 6000 l0 -6000 1258 0 1257 0 1714 5988 c943 3293 1717 5993 1719
6000 3 9 -595 12 -2972 12 l-2976 0 0 -6000z"/>
<path d="M5978 11993 c9 -4 12 -813 12 -3998 l0 -3992 -570 -1991 c-313 -1095
-570 -1996 -570 -2002 0 -7 57 -10 177 -8 l176 3 86 302 86 303 772 0 772 0 9
-32 c5 -18 44 -156 87 -306 l78 -272 168 0 c97 0 169 4 169 9 0 5 -257 905
-570 2000 l-570 1989 2 4001 3 4001 -165 -1 c-91 0 -159 -3 -152 -6z"/>
<path d="M6330 11995 c0 -3 702 -2456 1561 -5452 858 -2997 1630 -5694 1717
-5995 l156 -548 1118 0 1118 0 0 6000 0 6000 -2835 0 c-1559 0 -2835 -2 -2835
-5z"/>
</g>
</svg>
