<svg xmlns="http://www.w3.org/2000/svg" width="31.7" height="31.7" viewBox="0 0 31.68 31.681"><path d="M29.2 3.5l-.7-.7c-.6-.5-1.3-.8-2-1-1.5-.7-3-1-4.7-1.4-2-.3-4-.4-6-.4S12 0 10 .4c-1.3.2-2.7.5-4 1l-2.5 1-1 1C2.2 4 2 4.4 2 5L2.8 8l.8 4.8 1 5.4c0 .4 0 .7.4 1 0 .2.3.4.5.6.7.6 1.6 1 2.4 1.3 2 1 4.2 1.2 6.4 1.4 1.6 0 3.2 0 4.8-.2 1.4-.2 2.8-.5 4-1 1-.3 2-.8 2.8-1.4.3 0 .7-.4 1-.8l.3-.8 1.2-7 1-6.5c0-.6 0-1-.3-1.5zm-13.4 16c-2.4 0-4.3-1.8-4.3-4.2 0-2.5 2-4.4 4.4-4.4 2.3 0 4.2 2 4.2 4.3 0 2.4-2 4.3-4.4 4.3zm8.7-15l-.4.3-1.4.5-3 .5L16 6c-1.5 0-3 0-4.4-.3-1 0-2-.3-3-.6-.4 0-.7 0-1-.3-.2 0-.3-.2-.4-.3-.2-.2-.2-.4 0-.7l.4-.3L9 3l3-.6c1.6-.2 3.3-.2 5-.2 1.5 0 3 .2 4.5.5.7 0 1.4.2 2 .5.3 0 .5.2.7.4 0 0 .2 0 .3.2.2.2.2.4 0 .6zm1.7 18.3v.2l-1 4.8c0 .6-.3 1-.7 1.4-.4.5-1 .8-1.4 1-1 .5-2 1-3 1-1.4.4-2.8.5-3.6.5-2.4 0-4.2-.2-6-.7-.7-.2-1.5-.5-2.2-1-.4-.2-.7-.4-1-.8-.4-.4-.7-.8-.8-1.4l-1-4.8v-.2c0-.4.5-.6.8-.4 1.3 1 2.6 1.5 4 2 1.2.3 2.5.5 4 .6 1.4.2 3 0 4.4 0 2-.3 4-1 5.7-2 .3 0 .7-.3 1-.5h.2c.3-.3.7 0 .7.3zM18 15.3c0 1.2-1 2.2-2.2 2.2-1.2 0-2-1-2-2.2 0-1.2.8-2.2 2-2.2 1.3 0 2.2 1 2.2 2.3z"/></svg>
