<svg xmlns="http://www.w3.org/2000/svg" width="32" height="32" viewBox="0 0 32 32"><path d="M13.4 10.3c-.6 0-1.2.5-1.2 1s.6 1.3 1.2 1.3c.7 0 1.2-.5 1.2-1.2s-.5-1-1.2-1zm0 1c-.4 0-.7 0-.7-.4s.3-.5.7-.5c.4 0 .7.2.7.4s-.2.3-.6.3zM27 16c-1.3-1-7-1.8-9-2l.3-.6.8-.3.4.8c3.7 0 4-2.8 4-3.6.2-.7.2-1.5 1.4-2.8-2-.6-4.6.8-5.5 3l-1-.4c-.3-1-1.5-3.7-4.8-3.7-2.2 0-4.4 1-6 2.5-1 .8-1.6 1.8-2 3-.6 1-.8 2.4-.8 4 0 4.8 3.3 9 5.2 9 .8 0 1.5-.5 1.7-1 0 .3.5 1.5.7 1.8.2.5 1.2 1 1.6.4.5.3 1.5.5 2-.3 1 .2 2-.4 2-1.2.6 0 .8-.7.7-1.3 0-.4-1-2-1.3-2.5.7.6 2.4.7 2.6 0 1 1 3 .4 3-.3 1.3.4 3-.4 2.6-1.3 2.2 0 2-2.4 1.3-3zm-5.7-3.7c-.6-.3-1.3-.4-1.8-.4-.7 0-1.2.3-1.8.3H17s.3.2.7.2c.3 0 .8 0 1.2-.3v.3c-.8.2-1.6.7-2 .8-.4-1.2 0-2.2.5-2.7 1.8 0 3.3 1.2 3.8 1.7zm.8 0l-.2-.4c-.3-.4-.6-.6-1-.8.6-1 1-2 2-2.6-1 .3-1.7 1.3-2.2 2.4l-.7-.4C20.4 9 22 8 23.6 8c-1 1-.7 3-1.6 4.2zM20 13c-.2 0-.3-.6-.3-1l.7.2v.5s0-.3.2-.4l1.2.3c-.4.3-1 .5-1.8.5zm-2.6-3c-1.4 1.5-1 3.3-.3 4.2-1 1.3-2.4 2-4 2.5 1.8 0 3-.5 3.7-1 .4-.3.6-.6.7-.8 3 0 7.5 1 8 1.4.2 0 .4.4.4.6l-7.2-.7c.8 0 6 1.2 7 1.4-.3.4-1 .8-2 .5.7.8-.4 1.6-1.8 1 .3.8-1 1.5-2.3.7 0 .6-1.8.7-2.5 0v.3c0 2-1.8 3.3-3.5 3.3-4.2 0-8-3.4-8-8 0-4.7 3.7-8.3 8-8.3 2.4 0 3.5 2 3.7 2.7z"/></svg>
