<svg xmlns="http://www.w3.org/2000/svg" width="360" height="342.5" viewBox="0 0 360 342.5"><path fill="#FDC168" d="M79.7 35.6l-1.7-1c-4.8 0 1.7 1 1.7 1z"/><path fill="#FFF" d="M147.2 147s-9 9-22.6 6c-13.7-3-22-9-22.6-19.4-.7-10.5 2.8-14.7 2.8-14.7s15.3 4.7 22.6 11c7.3 6.4 12.8 16.6 19.8 17z"/><path fill="#C9C9C9" d="M136.4 143.8s-7.8 3.5-16.4.6c-11.3-3.8-12-15.5-12-15.5s-7 20.2 12.5 24.2c15.6 3 24.8-6 24.8-6l-9-3.4z"/><path d="M142 40.5c-1-17.4 13.3-31.3 18.3-32 .3 3-.3 14.6 4.7 18 1.4-9.3 6.3-19.7 25.6-26.5-4.2 11-.6 20 1 24.4 13.3-12 22-10 22-10s-9 15.8-5.4 26c-26.4-2-66.2 3-66.3 0z"/><path fill="#463014" d="M86 67c-6.4-5-1.7-10-2.2-16-.3-3-.6-6-1.6-7.7-5.8-9.2-19.5-12-19.6-12L56 30l4.4-5c.6-.5 18-17.2 45-8.5 19 6 33 26.8 33.4 27.6l-9.4 4.6c-.2-.2-11.2-19.6-27.4-24.8-13-4.3-25.2-.3-30.4 2.4 5.5 2.2 12.7 6.2 17 13 2 3.2 2.4 7.3 2.8 11.3.4 5.2.8 10 4.6 13.3L86 67zM69 143.4s8-9.8 10.3-29c1-7.5-.7-22.4-3.3-28 .4 14-3 28-3 28s-2.5 26.2-4 29z"/><path fill="#463014" d="M111 57.2s-2.7-11.2-9.7-16.8c-10-8-22-3.7-22.2-3.6l-1.7-5.5c.6-.2 14.5-4.6 27.3 4.4 13 9 14.4 17.3 14.5 18.2l-8 3.2z"/><path d="M94 136.4s-4.2-6-3.5-12.5c.4-3.4 2-6.7 4.6-8 5-2 7.3 3.6 7.3 3.6s-7 1.7-8.3 16.8z"/><path d="M139.7 145.5l.3.5s-13 9.7-26.3-.2c-7.2-5.3-6.5-18.4-4.3-24 5.7 1.3 10.5 3.7 14.5 6.4-5.2-4.6-9.6-8-9.6-8l-5.8-1.6-11.2-4c-.2 1-4.3 20.2 7.5 33.3 5.2 5.7 29.8 18.7 41.5-3.5l-6.8 1z"/><path d="M138.5 147c7.3 11 25.8 4.7 25.4-7 0 0-12.4 6.7-23.3-5.8-6.3-7.3-26.7-27.5-54.4-20.8 19 4.2 44.4 21.6 52.2 33.5z"/><path d="M83.7 178.3c1.8 1 8 7.5 8 17 0 5-.5 29-3 44 3.7 2.3 6.2 2.8 9.8 5 1.8-17 3-41.8 2.5-52-.7-11.3-6.8-19-12.5-22.2l-5.5-3c-9.7-5.2-19.8-10.7-19.8-20 0-7.2 2.8-9.5 5.8-12h.4c2-1.7 4.2-3.5 5.5-6.5 3.5-8.2 4-29 0-34.2-2.2-2.6-7.8-11.5-6.2-17.4.6-2.4 2-4 4.4-5.3 2.4-1.2 5.7-2 9.8-2 8 0 17 2.6 21.6 4 16.4 5.3 36.2 20.3 42 24.7v.2l3.8 2.6-2.3-3.8c0-.3-14.4-24-40.2-32.6-5-1.7-14.8-4.5-24.5-4.5-5.7 0-10.6 1-14.5 3-4.7 2.4-8 6.2-9.2 11-3.3 12 7.3 25.3 7.7 25.7 1.2 2.2 1.7 18.2-1 24.6-.5 1-1.6 1.7-3 2.8l-1.3 1c-4 3.2-10.2 7.8-10.2 18.3 0 14.5 14.7 22.3 26.5 28.6l5.4 3z"/><path d="M86 67c-6.4-5-1.7-10-2.2-16-.3-3-.6-6-1.6-7.7-5.8-9.2-19.5-12-19.6-12L56 30l4.4-5c.6-.5 18-17.2 45-8.5 19 6 33 26.8 33.4 27.6l-9.4 4.6c-.2-.2-11.2-19.6-27.4-24.8-13-4.3-25.2-.3-30.4 2.4 5.5 2.2 12.7 6.2 17 13 2 3.2 2.4 7.3 2.8 11.3.4 5.2.8 10 4.6 13.3L86 67z"/><path d="M85.7 68.2l-.5-.3c-4.6-4-3.8-7.8-3-11.5.4-1.8.8-3.5.6-5.3-.3-3-.5-6-1.4-7.4-5.5-8.7-19-11.5-19-11.5l-8-1.6 5.3-6.2S71 13 90 13c5 0 10.4 1 15.7 2.6 19.7 6.4 33.8 27.8 34 28l.5 1-11.2 5.2-.4-.7c-1.3-2-12-19.5-27-24.3C98 23.5 94.2 23 90.2 23c-7 0-13 1.8-16 3 5.2 2.5 11.5 6.4 15.5 12.7 2 3.4 2.5 7.6 2.8 11.7.4 5 .8 9.7 4.4 12.6l1.3 1-12.3 4.2z"/><path d="M111 57.2s-2.7-11.2-9.7-16.8c-10-8-22-3.7-22.2-3.6l-1.7-5.5c.6-.2 14.5-4.6 27.3 4.4 13 9 14.4 17.3 14.5 18.2l-8 3.2z"/><path d="M110.2 58.5l-.2-1c0-.2-2.6-11-9.3-16.3-3.8-3-8.5-4.6-13.8-4.6-4.2 0-7.3 1-7.6 1l-1 .4-2.3-7.3 1-.3c.4 0 4-1.3 9.3-1.3 7 0 13.4 2 18.8 6 13.3 9.2 15 17.8 15 18.7l.2.8-10 4zM87 34.5c5.6 0 10.8 2 15 5.2 6 4.7 8.7 13.2 9.5 16.2l6.5-2.7c-.5-2.3-3-9.2-14-16.8C99 33 93 31 86.3 31c-3.6 0-6.4.6-7.8 1l1.2 3.6c1.4-.4 4-1 7.2-1zM145.7 295.5c-2.8 0-5.7-1-7.7-2.8-1.5-1.3-6.7-6-9-11.8-.8-2.3-.6-4 .6-5.3 1-1 2.6-2 6.2-2H155c2.8 0 4.8.7 6 1.8 1.3 1.5 1 3.4.5 4.4-.7 1.6-3.7 7.3-8.6 12.6-1.8 1.8-4.4 3-7.3 3zM148.7 147.6l-10.2-.7s2.6 4.5 4.3 10.4c2 6.7-1.8 16.5-1.8 16.5s13.6-15.4 7.7-26.4zM136 322.4c-36.3-2.8-49-37-49-44.2h9.4-4.7 4.7c0 3 9.7 32.4 40.3 34.7l-.7 9.4z"/><path fill="#FFF" d="M125.8 261c-.6-3.3-.6-6.4 0-9.4-2.7-2-7.7-2.8-11.4-4-3-2-18.5 2-29.8-11.7-14-17.2-11-27.4-11-27.4-3.7 4-7.2 2.5-12.7 21.3-5.7 18.6 2.5 31.7 17.6 44.8 7 6.2 17.2 8.7 26 9.7-3-3 5-3.2 10.3-5.2-.5-4.4.2-8.7 3.5-12 2-2.2 4.5-3.4 7-4.4l.5-1-.2-1z"/><path fill="#C9C9C9" d="M114.8 279l-.8-2.7c-.2-1-1.5-4 0-.6l-.8-2.6c-24.5 0-45.8-16.7-41.6-52-3.2-4.3-7.7 8.5-7.7 8.5S51.5 265 83.2 279c10.5 4.5 19.8 7.8 22 6.5 4.6 1 8.8-2.3 10.3-4.4-.3-.6-.6-1.2-.8-2z"/><path d="M125.3 256c0-3 .7-6 2-9 .2 0 .3-.2.5-.4-9.5 0-20.3-1-29.6-4.7-10-4.2-22.8-18-25-34.4 0 0-19 14.7-13.5 46.3 5.3 29.6 30 39.3 58.4 41 0-.3-3-7-2-11-16 1.2-34-5-42.8-19.3-8-13-5.7-35.3-2.5-38.6 8 25.2 36.7 30.3 54.6 30z"/><path d="M128.3 238c-5 15-15.5 27-15.5 27s14.3-.7 15-3.2c.7-2 13-30.8 17.8-64.6-4.5 7.3-17 39.4-17.3 40.7z"/><path fill="#FDC168" d="M272.5 35.6l1.6-1c5 0-1.5 1-1.5 1z"/><path fill="#FFF" d="M205 147s9 9 22.6 6c13.7-3 22-9 22.6-19.4.6-10.5-3-14.7-3-14.7s-15 4.7-22.5 11c-7.3 6.4-12.7 16.6-19.7 17z"/><path fill="#C9C9C9" d="M215.8 143.8s7.7 3.5 16.4.6c11.3-3.8 12-15.5 12-15.5s7 20.2-12.5 24.2c-15.6 3-24.8-6-24.8-6l8.8-3.4z"/><path fill="#463014" d="M266.3 67c6.3-5 1.6-10 2-16 .4-3 .6-6 1.7-7.7 5.8-9.2 19.5-12 19.6-12L296 30l-4.2-5c-.6-.5-18-17.2-45-8.5-19 6-33 26.8-33.5 27.6l9.5 4.6c0-.2 11.2-19.6 27.4-24.8 13-4.3 25.2-.3 30.4 2.4-5.5 2.2-12.7 6.2-17 13-2 3.2-2.5 7.3-2.8 11.3-.4 5.2-.8 10-4.7 13.3l10.3 3.3zM283 143.4s-7.8-9.8-10-29c-1-7.5.6-22.4 3.2-28-.5 14 3 28 3 28s2.5 26.2 4 29z"/><path fill="#463014" d="M241.3 57.2s2.5-11.2 9.6-16.8c9.8-8 22-3.7 22-3.6l2-5.5c-.7-.2-14.6-4.6-27.4 4.4-13 9-14.4 17.3-14.6 18.2l8.3 3.2z"/><path d="M258.2 136.4s4.2-6 3.4-12.5c-.4-3.4-2-6.7-4.5-8-5-2-7 3.6-7 3.6s7 1.7 8.2 16.8z"/><path d="M212.5 145.5l-.3.5s13 9.7 26.3-.2c7-5.3 6.5-18.4 4.3-24-5.7 1.3-10.5 3.7-14.5 6.4 5-4.6 9.5-8 9.5-8l5.8-1.6 11.2-4c.2 1 4.2 20.2-7.6 33.3-5.2 5.7-29.8 18.7-41.5-3.5l6.8 1z"/><path d="M213.7 147c-7.3 11-25.8 4.7-25.5-7 0 0 12.4 6.7 23.3-5.8 6.3-7.3 26.7-27.5 54.3-20.8-19 4.2-44.3 21.6-52 33.5z"/><path d="M268.4 178.3c-1.7 1-8 7.5-8 17 0 5 .5 29 3 44-3.7 2.3-6.2 2.8-9.7 5-1.8-17-3-41.8-2.5-52 .7-11.3 6.8-19 12.5-22.2l5.5-3c9.7-5.2 19.7-10.7 19.7-20 0-7.2-3-9.5-6-12h-.2c-2-1.7-4.2-3.5-5.5-6.5-3.7-8.2-4.3-29 0-34.2 2-2.6 7.7-11.5 6-17.4-.5-2.4-2-4-4.3-5.3-2.5-1.2-5.8-2-10-2-8 0-16.8 2.6-21.4 4-16.4 5.3-36.2 20.3-42 24.7 0 .2-.2.2-.2.2l-3.6 2.6 2.3-3.8c.2-.3 14.6-24 40.3-32.6 5-1.7 15-4.5 24.5-4.5 5.8 0 10.7 1 14.6 3 4.7 2.4 8 6.2 9.2 11 3.2 12-7.4 25.3-7.7 25.7-1.3 2.2-2 18.2 1 24.6.4 1 1.4 1.7 2.8 2.8l1.4 1c4 3.2 10 7.8 10 18.3 0 14.5-14.5 22.3-26.3 28.6-2 1-4 2-5.6 3z"/><path d="M251 65.4c-2.4-4-8.4-11.6-22-18.3-15.4-7.3-33.2-11-53-11-19.6 0-37.4 3.7-52.7 11-13.8 6.8-19.7 14.5-22 18.4l-1 1.3 11.7 2.7.4-.5.2-.5c0-.8 1.7-5 14.8-11.4 14-6.8 30.4-10.2 48.7-10.2 18.3 0 34.7 3.4 48.7 10.3 13 6.5 14.7 10.7 15 11.5v.4l.5.4 11.7-2.7-1-1.3z"/><path d="M266.3 67c6.3-5 1.6-10 2-16 .4-3 .6-6 1.7-7.7 5.8-9.2 19.5-12 19.6-12L296 30l-4.2-5c-.6-.5-18-17.2-45-8.5-19 6-33 26.8-33.5 27.6l9.5 4.6c0-.2 11.2-19.6 27.4-24.8 13-4.3 25.2-.3 30.4 2.4-5.5 2.2-12.7 6.2-17 13-2 3.2-2.5 7.3-2.8 11.3-.4 5.2-.8 10-4.7 13.3l10.3 3.3z"/><path d="M254.2 64l1.3-1c3.5-3 4-7.6 4.4-12.6.2-4 .6-8.3 2.7-11.7 4-6.3 10.3-10.2 15.5-12.6-3-1.2-9-3-16.2-3-4 0-7.8.5-11.5 1.7-15 4.8-25.7 22.3-27 24.4l-.3.8-11.2-5.3.5-1c.2 0 14.2-21.5 34-28 5.2-1.6 10.5-2.4 15.7-2.4 19 0 30.2 11.4 30.3 11.5l5.3 6.2-8 1.6s-13.5 2.8-19 11.5c-1 1.5-1.2 4.3-1.4 7.4-.2 1.8.2 3.6.6 5.3.8 3.7 1.6 7.5-3 11.4l-.5.2-12.3-4z"/><path d="M241.3 57.2s2.5-11.2 9.6-16.8c9.8-8 22-3.7 22-3.6l2-5.5c-.7-.2-14.6-4.6-27.4 4.4-13 9-14.4 17.3-14.6 18.2l8.3 3.2z"/><path d="M232 54.5v-.8c.2-1 1.8-9.5 15-18.7 5.5-4 12-6 18.8-6 5.3 0 9 1.3 9.3 1.4l1 .3-2.3 7.3-1-.3c-.3-.2-3.3-1-7.5-1-5.2 0-10 1.4-13.7 4.5-6.8 5.3-9.3 16-9.3 16.2l-.2 1-10-4zm40.5-19l1-3.5c-1.2-.4-4-1-7.7-1-6.5 0-12.5 2-17.7 5.5-10.7 7.6-13.3 14.5-14 16.8l6.6 2.6c1-3 3.7-11.6 9.7-16.3 4-3.3 9.3-5 15-5 3.2 0 5.8.5 7.2 1zM199.2 292.6c-5-5.3-7.8-11-8.5-12.7-.4-1-.8-3 .6-4.4 1-1.2 3-1.8 5.8-1.8h19.3c3.6 0 5.4 1 6.2 2 1.3 1.2 1.5 3 .6 5-2.2 6-7.3 10.6-9 12-2 1.7-4.7 2.7-7.5 2.7-3 0-5.5-1-7.3-3zM203.5 147.6l10.2-.7s-2.6 4.5-4.3 10.4c-2 6.7 1.7 16.5 1.7 16.5s-13.4-15.4-7.5-26.4zM194 111c-6.6 4-12.4 5.4-18 5.6-5.5-.2-11.3-1.5-17.8-5.5 0 0 9.5 11.7 17.8 11.8 8.5 0 18-11.7 18-11.7zM216.2 322.4l-.7-9.5c30.5-2.4 40.2-31.7 40.2-34.8h9.5c0 7-12.8 41.4-49 44.2z"/><path fill="#FFF" d="M226.4 261c.6-3.3.6-6.4 0-9.4 2.7-2 7.6-2.8 11.3-4 3-2 18.6 2 29.8-11.7 14-17.2 11.2-27.4 11.2-27.4 3.6 4 7 2.5 12.6 21.3 5.5 18.6-2.6 31.7-17.7 44.8-7 6.2-17.2 8.7-26 9.7 3-3-5-3.2-10.3-5.2.4-4.4-.3-8.7-3.6-12-2-2.2-4.5-3.4-7-4.4l-.5-1c0-.4 0-.7.2-1z"/><path fill="#C9C9C9" d="M237.3 279c.4-.8.6-1.7.8-2.7.4-1 1.6-4 0-.6.5-.8.7-1.7 1-2.6 24.4 0 45.7-16.7 41.6-52 3.2-4.3 7.7 8.5 7.7 8.5S300.5 265 269 279c-10.7 4.5-20 7.8-22.2 6.5-4.6 1-8.7-2.3-10.2-4.4l.7-2z"/><path d="M226.8 256c0-3-.6-6-2-9-.2 0-.3-.2-.4-.4 9.4 0 20.3-1 29.5-4.7 10-4.2 22.8-18 25-34.4 0 0 19 14.7 13.5 46.3-5.3 29.6-30 39.3-58.4 41 0-.3 3.3-7 2.2-11 16 1.2 34-5 42.8-19.3 8-13 5.7-35.3 2.4-38.6-8 25.2-36.6 30.3-54.6 30z"/><g><path d="M238.3 263.3c-3.4-3.6-9.6-8-24-8H138c-14.3 0-20.5 4.4-24 8-4.8 5.4-5.6 12.8-2.2 22 9 24.6 21.8 49.7 64.4 49.7 42.8 0 55.5-25 64.5-49.7 3.5-9.2 2.7-16.6-2.2-22zm-6.7 20.3c-4.3 12.3-16 42.3-55.5 42.3s-51-30-55.5-42.4c-2.3-7-2.2-12 .6-15 2-2.3 6.3-4.8 16.2-4.8H215c9.8 0 14.2 2.5 16 4.7 2.8 3 3 8.2.6 15z"/></g><path d="M224 238c5 15 15.4 27 15.4 27s-14.4-.7-15-3.2c-.7-2-13-30.8-17.8-64.6 4.5 7.3 16.8 39.4 17.3 40.7z"/></svg>
