<svg version="1.1" id="Layer_1" xmlns="http://www.w3.org/2000/svg" xmlns:xlink="http://www.w3.org/1999/xlink" x="0px" y="0px" width="309.167px" height="274.5px" viewBox="0 0 309.167 274.5" enable-background="new 0 0 309.167 274.5" xml:space="preserve">
<g id="_x23_bdbec0ff">
	<path d="M2.062,8.38c0.1-4.3,4.27-7.74,8.5-7.35c95.97,0.02,191.95,0.02,287.93,0c4.21-0.39,8.38,3.04,8.49,7.33
		c0.11,5.65,0.021,11.3,0.03,16.95c-101.66,0-203.32,0-304.98-0.01C2.042,19.66,1.942,14.02,2.062,8.38z"></path>
	<path d="M2.103,247.799c101.61,0.01,203.23,0.01,304.84,0c0.16,5.49,0.09,10.99,0.07,16.48c-0.03,4.35-4.17,7.869-8.44,7.51
		c-94.37,0.01-188.73,0-283.1,0c-2.29-0.01-4.58,0.109-6.86-0.119c-3.62-0.461-6.54-3.811-6.58-7.441
		C2.013,258.75,1.942,253.27,2.103,247.799z"></path>
</g>
<g id="_x23_09232dff">
	<path d="M2.032,19.491c101.66,0.011,203.32,0.011,304.98,0.011c0,78.216,0.02,156.431,0,234.657h-0.07
		c-101.609,0.011-203.23,0.011-304.84,0h-0.08C2.013,175.933,2.032,97.718,2.032,19.491 M35.272,47.44
		c-0.02,4.44,0.02,8.881-0.02,13.321c-4.34,0.875-8.8,2.436-11.91,5.927c-5.4,5.622-5.61,15.99-0.04,21.559
		c5.49,5.622,13.26,7.204,19.99,10.505c1.92,1.033,4.37,2.468,4.29,5.104c-0.03,2.637-2.81,3.85-4.92,4.103
		c-7.14,0.897-13.86-2.542-19.8-6.297c-2.1,3.555-4.31,7.035-6.38,10.6c5.32,4.62,11.99,7.267,18.79,8.153
		c-0.01,4.936-0.03,9.882,0.01,14.829c3.28-0.095,6.57,0.231,9.84-0.211c-0.19-4.958-0.03-9.925-0.12-14.882
		c5.07-1.097,10.28-3.28,13.47-7.794c4.44-6.001,4.14-15.599-1.39-20.746c-6.14-6.212-15.11-7.088-22.19-11.507
		c-2.71-1.434-1.73-5.622,0.86-6.539c6.19-1.962,12.61,0.674,17.64,4.482c2.39-2.954,4.9-5.801,7.2-8.85
		c-4.06-4.788-9.75-7.425-15.61-8.722c0.08-4.345,0.04-8.69,0.04-13.036C41.772,47.42,38.522,47.409,35.272,47.44 M78.752,47.462
		c0.04,29.257-0.01,58.514,0.02,87.771c10.65,0.011,21.29-0.021,31.94,0.021c0.16-29.278,0.01-58.556,0.08-87.834
		C100.112,47.44,89.433,47.367,78.752,47.462z"></path>
</g>
</svg>
